<svg xmlns="http://www.w3.org/2000/svg" data-name="Layer 32" viewBox="0 0 32 32" id="text-file"><defs><linearGradient id="a" x1="6.295" x2="26.206" y1="7.295" y2="27.206" gradientUnits="userSpaceOnUse"><stop offset="0" stop-color="#fdc830"></stop><stop offset="1" stop-color="#f37335"></stop></linearGradient></defs><path fill="url(#a)" d="M28,8.5a2.5,2.5,0,0,1-2,2.45V27a1,1,0,0,1-2,0V10a1,1,0,0,1,1-1h0.5a0.5,0.5,0,0,0,0-1H21a1,1,0,0,1,0-2h3V5a1,1,0,0,0-1-1H14a1,1,0,0,0-1,1v5a1,1,0,0,1-1,1H7a1,1,0,0,0-1,1V27a1,1,0,0,0,1,1H23a1,1,0,0,1,0,2H7a3.009,3.009,0,0,1-3-3V10.83a2.956,2.956,0,0,1,.88-2.12l5.83-5.83A2.956,2.956,0,0,1,12.83,2H23a3.009,3.009,0,0,1,3,3V6.05A2.5,2.5,0,0,1,28,8.5ZM20,23H10a1,1,0,0,0,0,2H20A1,1,0,0,0,20,23Zm0-5H10a1,1,0,0,0,0,2H20A1,1,0,0,0,20,18Zm0-5H10a1,1,0,0,0,0,2H20A1,1,0,0,0,20,13Z"></path></svg>